<svg xmlns="http://www.w3.org/2000/svg" xmlns:xlink="http://www.w3.org/1999/xlink" viewBox="0 0 1219.851 904.293">
  <defs>
    <style>
      .cls-1 {
        fill: url(#linear-gradient);
      }
    </style>
    <linearGradient id="linear-gradient" x1="0.5" x2="0.5" y2="1" gradientUnits="objectBoundingBox">
      <stop offset="0" stop-color="#49b5f1"/>
      <stop offset="1" stop-color="#0e77ff"/>
    </linearGradient>
  </defs>
  <path id="background" class="cls-1" d="M892.785,1228.794h-.032A406.2,406.2,0,0,1,801.3,1218.47a444.737,444.737,0,0,1-45.094-12.943c-14.865-5.115-30.178-11.228-45.514-18.17-15.06-6.817-30.728-14.7-46.568-23.426-15.452-8.514-31.688-18.174-48.256-28.712-31.563-20.076-65.617-44.084-104.107-73.4-12.326-9.387-24.358-19.02-35.761-28.63-11.2-9.44-22.131-19.143-32.487-28.838-10.154-9.506-20.062-19.292-29.45-29.087-9.188-9.587-18.153-19.47-26.647-29.377a689.47,689.47,0,0,1-83.281-121.24c-10.893-20.055-21.018-40.806-30.953-63.438-8.922-20.323-17.538-41.833-26.342-65.759-16.445-44.691-30.99-90.891-46.39-139.8l-.037-.118c-4.716-14.979-9.593-30.469-14.566-46.036-11.149-34.9-21.39-64-30.426-89.666l0-.01C140.851,378.449,130.33,348.56,126.79,324.5h989.842c12.873,10.16,25.282,20.7,36.883,31.321,11.821,10.825,23.192,22.1,33.8,33.5,10.779,11.591,21.113,23.69,30.715,35.962,9.737,12.444,19.036,25.467,27.639,38.707,8.7,13.4,16.969,27.439,24.566,41.735,7.673,14.441,14.907,29.6,21.5,45.046,6.647,15.58,12.85,31.945,18.435,48.64,5.624,16.81,10.8,34.48,15.376,52.516,16.217,63.877,23.141,125.5,20.581,183.147-2.537,57.117-14.359,109.923-35.139,156.951a353.711,353.711,0,0,1-88.844,122.366,364.75,364.75,0,0,1-30.366,24.2,384.379,384.379,0,0,1-33.565,21.388c-11.714,6.643-24.073,12.847-36.733,18.44-12.769,5.641-26.183,10.809-39.869,15.361-17.529,5.83-34.646,10.971-50.876,15.28-16.474,4.374-32.654,8.056-48.091,10.944-15.6,2.917-31.009,5.133-45.812,6.583C921.935,1228.054,907.117,1228.794,892.785,1228.794Z" transform="translate(-126.79 -324.5)"/>
</svg>
