<svg xmlns="http://www.w3.org/2000/svg" viewBox="0 0 25 25">
  <defs>
    <style>
      .cls-1 {
        fill: #0e77ff;
      }
    </style>
  </defs>
  <g id="settings" transform="translate(0 -0.002)">
    <g id="Gruppe_58" data-name="Gruppe 58" transform="translate(0 0.002)">
      <g id="Gruppe_57" data-name="Gruppe 57" transform="translate(0 0)">
        <path id="Pfad_27" data-name="Pfad 27" class="cls-1" d="M24.63,10.522,22.6,10.016a10.3,10.3,0,0,0-1.2-2.9l1.077-1.792a.488.488,0,0,0-.073-.6L20.273,2.6a.488.488,0,0,0-.6-.073L17.884,3.6a10.3,10.3,0,0,0-2.9-1.2L14.48.372A.488.488,0,0,0,14.006,0H10.993a.488.488,0,0,0-.474.37L10.014,2.4a10.3,10.3,0,0,0-2.9,1.2L5.324,2.525a.488.488,0,0,0-.6.073L2.6,4.729a.488.488,0,0,0-.073.6L3.6,7.118a10.3,10.3,0,0,0-1.2,2.9L.37,10.522A.488.488,0,0,0,0,11v3.013a.488.488,0,0,0,.37.474l2.029.505a10.3,10.3,0,0,0,1.2,2.9L2.523,19.678a.488.488,0,0,0,.073.6l2.131,2.131a.488.488,0,0,0,.6.073L7.116,21.4a10.3,10.3,0,0,0,2.9,1.2l.505,2.029a.488.488,0,0,0,.474.37h3.013a.488.488,0,0,0,.474-.37l.506-2.029a10.3,10.3,0,0,0,2.9-1.2l1.792,1.077a.488.488,0,0,0,.6-.073L22.4,20.275a.488.488,0,0,0,.073-.6L21.4,17.886a10.3,10.3,0,0,0,1.2-2.9l2.029-.505a.488.488,0,0,0,.37-.474V11A.489.489,0,0,0,24.63,10.522Zm-.606,3.105-1.95.486a.488.488,0,0,0-.359.372,9.34,9.34,0,0,1-1.3,3.131.488.488,0,0,0-.009.517l1.035,1.722-1.591,1.591L18.13,20.41a.488.488,0,0,0-.517.009,9.34,9.34,0,0,1-3.131,1.3.488.488,0,0,0-.372.359l-.486,1.95h-2.25l-.486-1.95a.488.488,0,0,0-.372-.359,9.34,9.34,0,0,1-3.131-1.3.488.488,0,0,0-.517-.009L5.148,21.445,3.557,19.854l1.035-1.722a.488.488,0,0,0-.009-.517,9.34,9.34,0,0,1-1.3-3.131.488.488,0,0,0-.359-.372l-1.95-.486v-2.25l1.95-.486a.488.488,0,0,0,.359-.372,9.34,9.34,0,0,1,1.3-3.131.488.488,0,0,0,.009-.517L3.557,5.15,5.148,3.559,6.87,4.594a.488.488,0,0,0,.517-.009,9.339,9.339,0,0,1,3.131-1.3.488.488,0,0,0,.372-.359l.486-1.95h2.25l.486,1.95a.488.488,0,0,0,.372.359,9.34,9.34,0,0,1,3.131,1.3.488.488,0,0,0,.517.009l1.722-1.035L21.443,5.15,20.408,6.872a.488.488,0,0,0,.009.517,9.34,9.34,0,0,1,1.3,3.131.488.488,0,0,0,.359.372l1.95.486Z" transform="translate(0 -0.002)"/>
      </g>
    </g>
    <g id="Gruppe_60" data-name="Gruppe 60" transform="translate(5.176 5.178)">
      <g id="Gruppe_59" data-name="Gruppe 59">
        <path id="Pfad_28" data-name="Pfad 28" class="cls-1" d="M113.324,106a7.252,7.252,0,0,0-3.244.756.488.488,0,1,0,.433.875,6.284,6.284,0,0,1,2.811-.655,6.345,6.345,0,1,1-5.467,3.12.488.488,0,1,0-.84-.5,7.325,7.325,0,1,0,6.308-3.6Z" transform="translate(-106 -106.002)"/>
      </g>
    </g>
    <g id="Gruppe_62" data-name="Gruppe 62" transform="translate(8.984 8.986)">
      <g id="Gruppe_61" data-name="Gruppe 61">
        <path id="Pfad_29" data-name="Pfad 29" class="cls-1" d="M187.516,184a3.516,3.516,0,1,0,3.516,3.516A3.52,3.52,0,0,0,187.516,184Zm0,6.055a2.539,2.539,0,1,1,2.539-2.539A2.542,2.542,0,0,1,187.516,190.057Z" transform="translate(-184 -184.002)"/>
      </g>
    </g>
    <g id="Gruppe_64" data-name="Gruppe 64" transform="translate(7.353 7.012)">
      <g id="Gruppe_63" data-name="Gruppe 63">
        <path id="Pfad_30" data-name="Pfad 30" class="cls-1" d="M151.423,143.705a.488.488,0,1,0,.143.345A.492.492,0,0,0,151.423,143.705Z" transform="translate(-150.59 -143.562)"/>
      </g>
    </g>
  </g>
</svg>
