<svg id="speedometer" xmlns="http://www.w3.org/2000/svg" viewBox="0 0 512 512">
  <defs>
    <style>
      .cls-1 {
        fill: #0e77ff;
      }
    </style>
  </defs>
  <g id="Gruppe_131" data-name="Gruppe 131">
    <g id="Gruppe_130" data-name="Gruppe 130">
      <path id="Pfad_60" data-name="Pfad 60" class="cls-1" d="M299.777,302.679l-36.5-119.5a7.6,7.6,0,0,0-14.544,0l-36.5,119.5a45.774,45.774,0,1,0,87.552,0Zm-22.163,34.987a30.566,30.566,0,0,1-50.845-30.544L256,211.431l29.233,95.692A30.506,30.506,0,0,1,277.614,337.666Z"/>
    </g>
  </g>
  <g id="Gruppe_133" data-name="Gruppe 133">
    <g id="Gruppe_132" data-name="Gruppe 132">
      <path id="Pfad_61" data-name="Pfad 61" class="cls-1" d="M84.543,228.5a27.5,27.5,0,1,0,27.5,27.5A27.529,27.529,0,0,0,84.543,228.5Zm0,39.786A12.289,12.289,0,1,1,96.832,256,12.3,12.3,0,0,1,84.543,268.289Z"/>
    </g>
  </g>
  <g id="Gruppe_135" data-name="Gruppe 135">
    <g id="Gruppe_134" data-name="Gruppe 134">
      <path id="Pfad_62" data-name="Pfad 62" class="cls-1" d="M427.457,228.5a27.5,27.5,0,1,0,0,54.994,7.6,7.6,0,0,0,0-15.208A12.289,12.289,0,1,1,439.746,256a7.6,7.6,0,0,0,15.208,0A27.529,27.529,0,0,0,427.457,228.5Z"/>
    </g>
  </g>
  <g id="Gruppe_137" data-name="Gruppe 137">
    <g id="Gruppe_136" data-name="Gruppe 136">
      <path id="Pfad_63" data-name="Pfad 63" class="cls-1" d="M134.073,163.155a27.484,27.484,0,1,0-26.6,34.626,27.639,27.639,0,0,0,7.161-.949,27.495,27.495,0,0,0,19.442-33.677Zm-15.917,13.261A12.288,12.288,0,1,1,104.334,158.4a12.288,12.288,0,0,1,13.822,18.014Z"/>
    </g>
  </g>
  <g id="Gruppe_139" data-name="Gruppe 139">
    <g id="Gruppe_138" data-name="Gruppe 138">
      <path id="Pfad_64" data-name="Pfad 64" class="cls-1" d="M431.045,334.612a27.489,27.489,0,1,0-2.746,20.865A27.315,27.315,0,0,0,431.045,334.612Zm-15.916,13.261a12.288,12.288,0,1,1-4.5-16.786A12.3,12.3,0,0,1,415.129,347.873Z"/>
    </g>
  </g>
  <g id="Gruppe_141" data-name="Gruppe 141">
    <g id="Gruppe_140" data-name="Gruppe 140">
      <path id="Pfad_65" data-name="Pfad 65" class="cls-1" d="M194.083,93.766a27.516,27.516,0,1,0-10.066,37.562A27.529,27.529,0,0,0,194.083,93.766Zm-17.667,24.39a12.288,12.288,0,1,1,4.5-16.787A12.3,12.3,0,0,1,176.416,118.156Z"/>
    </g>
  </g>
  <g id="Gruppe_143" data-name="Gruppe 143">
    <g id="Gruppe_142" data-name="Gruppe 142">
      <path id="Pfad_66" data-name="Pfad 66" class="cls-1" d="M256,57.046a27.5,27.5,0,1,0,27.5,27.5A27.529,27.529,0,0,0,256,57.046Zm0,39.786a12.289,12.289,0,1,1,12.289-12.289A12.3,12.3,0,0,1,256,96.832Z"/>
    </g>
  </g>
  <g id="Gruppe_145" data-name="Gruppe 145">
    <g id="Gruppe_144" data-name="Gruppe 144">
      <path id="Pfad_67" data-name="Pfad 67" class="cls-1" d="M355.476,83.7a27.5,27.5,0,1,0,10.064,37.562A27.528,27.528,0,0,0,355.476,83.7Zm-3.1,29.958a12.289,12.289,0,1,1-4.5-16.787A12.3,12.3,0,0,1,352.372,113.658Z"/>
    </g>
  </g>
  <g id="Gruppe_147" data-name="Gruppe 147">
    <g id="Gruppe_146" data-name="Gruppe 146">
      <path id="Pfad_68" data-name="Pfad 68" class="cls-1" d="M428.3,156.523a27.5,27.5,0,1,0-30.929,40.309,27.634,27.634,0,0,0,7.161.949A27.508,27.508,0,0,0,428.3,156.523Zm-11.943,16.929a12.282,12.282,0,1,1-11.887-15.473,12.387,12.387,0,0,1,3.2.424,12.283,12.283,0,0,1,8.687,15.049Z"/>
    </g>
  </g>
  <g id="Gruppe_149" data-name="Gruppe 149">
    <g id="Gruppe_148" data-name="Gruppe 148">
      <path id="Pfad_69" data-name="Pfad 69" class="cls-1" d="M131.328,327.98a27.487,27.487,0,1,0-10.064,37.562A27.316,27.316,0,0,0,131.328,327.98Zm-17.67,24.393a12.289,12.289,0,1,1,4.5-16.788A12.3,12.3,0,0,1,113.658,352.373Z"/>
    </g>
  </g>
  <g id="Gruppe_151" data-name="Gruppe 151">
    <g id="Gruppe_150" data-name="Gruppe 150">
      <path id="Pfad_70" data-name="Pfad 70" class="cls-1" d="M411.018,100.983A217.8,217.8,0,0,0,256,36.772a220.062,220.062,0,0,0-54.725,6.887,7.6,7.6,0,0,0,3.786,14.73A204.778,204.778,0,0,1,256,51.979c112.5,0,204.02,91.523,204.02,204.02S368.5,460.02,256,460.02a202.8,202.8,0,0,1-105.718-29.582,204.34,204.34,0,0,1,195.325-8.816,7.6,7.6,0,1,0,6.688-13.658A219.476,219.476,0,0,0,136.426,421.2,203.981,203.981,0,0,1,176.589,68.01,7.6,7.6,0,1,0,170.664,54a219.284,219.284,0,1,0,240.354,46.98Z"/>
    </g>
  </g>
  <g id="Gruppe_153" data-name="Gruppe 153">
    <g id="Gruppe_152" data-name="Gruppe 152">
      <path id="Pfad_71" data-name="Pfad 71" class="cls-1" d="M437.019,74.981A256,256,0,1,0,74.981,437.019,256,256,0,1,0,437.019,74.981ZM426.266,426.266A240.792,240.792,0,0,1,85.734,85.734,240.792,240.792,0,0,1,426.266,426.266Z"/>
    </g>
  </g>
</svg>
